<svg width="227" height="227" viewBox="0 0 227 227" fill="none" xmlns="http://www.w3.org/2000/svg">
<path fill-rule="evenodd" clip-rule="evenodd" d="M125.164 92.1227L125.165 92.1222C126.658 91.6169 128.019 90.8864 129.232 89.9704C134.894 85.6956 137.299 77.4092 134.623 69.4871C133.083 64.9265 130.093 61.1324 126.204 58.8045C122.134 56.3669 117.578 55.8065 113.376 57.2265C109.173 58.647 105.891 61.8564 104.133 66.263C102.454 70.4726 102.379 75.3023 103.92 79.8619C107.171 89.4812 116.701 94.9814 125.164 92.1227ZM99.8445 79.8697C106.523 88.7139 105.64 100.678 97.8775 106.54C90.1156 112.401 78.3676 109.974 71.6894 101.129C65.0095 92.2831 65.8901 80.3181 73.6521 74.457C81.4148 68.5955 93.1646 71.0233 99.8445 79.8697ZM134.21 99.0815C124.817 95.6101 114.438 97.139 106.447 103.173C98.4566 109.207 94.1449 118.77 94.9131 128.754L96.7626 152.814C97.0691 156.805 98.6202 160.513 101.246 163.536C103.872 166.559 107.326 168.612 111.238 169.475C115.149 170.334 119.147 169.922 122.801 168.281C126.454 166.641 129.419 163.925 131.374 160.429L131.504 160.194C136.472 151.461 144.909 145.137 154.692 142.821C157.215 142.224 159.541 141.129 161.566 139.6C162.667 138.768 163.681 137.807 164.589 136.728C167.168 133.664 168.66 129.931 168.904 125.933C169.147 121.936 168.118 118.05 165.93 114.695C163.741 111.341 160.599 108.835 156.843 107.446L134.21 99.0815ZM87.3007 134.469C89.4957 130.947 89.9632 126.682 88.6167 122.46C87.3358 118.442 84.5378 114.926 80.7367 112.561C76.9365 110.198 72.547 109.241 68.3758 109.866C63.9946 110.523 60.3744 112.825 58.1862 116.346C53.7794 123.422 56.724 133.247 64.7539 138.251C71.1529 142.228 78.8717 141.96 83.972 138.108C85.2743 137.125 86.4058 135.908 87.3007 134.469ZM153.396 67.8636L153.399 67.8641C161.735 67.7862 168.593 75.4126 168.69 84.8646C168.744 90.8789 166.053 96.2039 161.944 99.3064C159.587 101.087 156.762 102.136 153.722 102.163C145.389 102.242 138.53 94.6163 138.434 85.1637C138.344 75.7108 145.056 67.9513 153.396 67.8636Z" fill="#EBF5FD"/>
<g clip-path="url(#clip0_1955_582)">
<path d="M130.334 105.363C127.051 105.086 123.891 106.172 121.434 108.423C119.598 110.105 118.449 112.226 118.017 114.727C117.8 115.989 117.77 117.316 117.93 118.688C116.577 118.409 115.253 118.323 113.976 118.429C111.447 118.641 109.234 119.601 107.398 121.283C104.942 123.533 103.583 126.587 103.573 129.882C103.563 133.137 104.876 136.369 107.271 138.983C109.735 141.673 112.994 143.217 117.525 143.842C121.579 144.401 126.507 144.224 132.213 144.018C134.162 143.949 136.371 143.869 138.69 143.815C139.303 143.802 139.89 143.566 140.343 143.151C140.796 142.736 141.082 142.172 141.149 141.563C141.405 139.257 141.677 137.062 141.917 135.126C142.62 129.461 143.226 124.567 143.023 120.48C142.796 115.911 141.542 112.531 139.077 109.841C136.683 107.227 133.578 105.637 130.334 105.363Z" fill="white"/>
</g>
<defs>
<clipPath id="clip0_1955_582">
<rect width="43.1385" height="43.1385" fill="white" transform="translate(96.9189 127.685) rotate(-42.4964)"/>
</clipPath>
</defs>
</svg>
