<svg width="113" height="114" viewBox="0 0 113 114" fill="none" xmlns="http://www.w3.org/2000/svg">
<path fill-rule="evenodd" clip-rule="evenodd" d="M69.164 36.1227L69.1648 36.1222C70.6581 35.6169 72.0193 34.8864 73.2324 33.9704C78.8936 29.6956 81.2994 21.4092 78.623 13.4871C77.0829 8.92651 74.0929 5.1324 70.2041 2.80451C66.1338 0.366893 61.5784 -0.193522 57.376 1.22646C53.1729 2.647 49.8912 5.85641 48.1334 10.263C46.4542 14.4726 46.3788 19.3023 47.9203 23.8619C51.1711 33.4812 60.701 38.9814 69.164 36.1227ZM43.8445 23.8697C50.5227 32.7139 49.6402 44.678 41.8775 50.5396C34.1156 56.4006 22.3676 53.9737 15.6894 45.1295C9.0095 36.2831 9.89015 24.3181 17.6521 18.457C25.4148 12.5955 37.1646 15.0233 43.8445 23.8697ZM78.21 43.0815C68.8169 39.6101 58.4383 41.139 50.4474 47.1729C42.4566 53.2067 38.1449 62.7704 38.9131 72.7544L40.7626 96.8136C41.0691 100.805 42.6202 104.513 45.2456 107.536C47.8716 110.559 51.3264 112.612 55.2377 113.475C59.1488 114.334 63.1472 113.922 66.8008 112.281C70.4543 110.641 73.4186 107.925 75.3738 104.429L75.504 104.194C80.4723 95.4615 88.9086 89.1372 98.6919 86.8213C101.215 86.2235 103.541 85.1291 105.566 83.5996C106.667 82.7681 107.681 81.8065 108.589 80.7277C111.168 77.6635 112.66 73.9309 112.904 69.9325C113.147 65.936 112.118 62.05 109.93 58.6954C107.741 55.3409 104.599 52.8347 100.843 51.4457L78.21 43.0815ZM31.3007 78.4686C33.4957 74.9466 33.9632 70.6819 32.6167 66.4596C31.3358 62.4415 28.5378 58.9261 24.7367 56.5607C20.9365 54.1981 16.547 53.2415 12.3758 53.8664C7.99462 54.5235 4.37438 56.8254 2.18621 60.3457C-2.22061 67.422 0.724017 77.2472 8.75389 82.2509C15.1529 86.2276 22.8717 85.9597 27.972 82.1085C29.2743 81.1251 30.4058 79.9079 31.3007 78.4686ZM97.3955 11.8636L97.3994 11.8641C105.735 11.7862 112.593 19.4126 112.69 28.8646C112.744 34.8789 110.053 40.2039 105.944 43.3064C103.587 45.0865 100.762 46.1355 97.7224 46.1634C89.3889 46.2422 82.5296 38.6163 82.4336 29.1637C82.3442 19.7108 89.0562 11.9513 97.3955 11.8636Z" fill="#EBF5FD"/>
</svg>
