<svg width="135" height="135" viewBox="0 0 135 135" fill="none" xmlns="http://www.w3.org/2000/svg">
<path d="M109.582 67.4825V50.5375C109.582 43.6851 104.007 38.1088 97.1548 38.1088H75.6913V16.6463C75.6913 9.79397 70.1161 4.21875 63.2637 4.21875H46.3187C39.4663 4.21875 33.8901 9.79397 33.8901 16.6463V38.1099H12.4276C5.57522 38.1099 0 43.6851 0 50.5375V67.4825C0 74.3349 5.57522 79.9101 12.4276 79.9101H33.8901V101.374C33.8901 108.226 39.4663 113.801 46.3187 113.801H63.2637C70.1161 113.801 75.6913 108.226 75.6913 101.374V79.9101H97.1548C104.007 79.9101 109.582 74.3349 109.582 67.4825Z" fill="#FFA14D" fill-opacity="0.24"/>
<path d="M97.1895 93.5747C97.1895 95.7562 98.962 97.5298 101.145 97.5298C103.328 97.5298 105.1 95.7562 105.1 93.5747C105.1 91.3922 103.328 89.6196 101.145 89.6196C98.962 89.6196 97.1895 91.3922 97.1895 93.5747Z" fill="#FFA14D" fill-opacity="0.24"/>
<path d="M88.1914 98.7389C86.0079 98.7389 84.2363 100.51 84.2363 102.694C84.2363 104.875 86.0079 106.649 88.1914 106.649C90.3749 106.649 92.1465 104.875 92.1465 102.694C92.1465 100.51 90.3749 98.7389 88.1914 98.7389Z" fill="#FFA14D" fill-opacity="0.24"/>
<path d="M122.046 93.5747C122.046 95.7593 120.274 97.5298 118.091 97.5298C115.906 97.5298 114.136 95.7593 114.136 93.5747C114.136 91.3912 115.906 89.6196 118.091 89.6196C120.274 89.6196 122.046 91.3912 122.046 93.5747Z" fill="#FFA14D" fill-opacity="0.24"/>
<path d="M109.617 104.115C101.206 104.115 94.3633 110.958 94.3633 119.37C94.3633 125.544 99.3555 130.746 105.739 130.746H113.496C119.877 130.746 124.872 125.548 124.872 119.37C124.872 110.958 118.029 104.115 109.617 104.115Z" fill="#FFA14D" fill-opacity="0.24"/>
<path d="M131.045 98.7389C128.861 98.7389 127.09 100.51 127.09 102.694C127.09 104.875 128.861 106.649 131.045 106.649C133.228 106.649 135 104.875 135 102.694C135 100.51 133.228 98.7389 131.045 98.7389Z" fill="#FFA14D" fill-opacity="0.24"/>
</svg>
