<svg width="141" height="143" viewBox="0 0 141 143" fill="none" xmlns="http://www.w3.org/2000/svg">
<path fill-rule="evenodd" clip-rule="evenodd" d="M76.099 42.4673L76.0997 42.4664C77.7831 41.3826 79.2341 40.0624 80.4454 38.5594C86.0982 31.5453 86.502 20.5953 80.7583 11.6639C77.4526 6.52204 72.5976 2.7722 67.0885 1.10599C61.3219 -0.639294 55.5376 0.0774994 50.7999 3.12464C46.0615 6.17268 43.0105 11.1396 42.2065 17.1104C41.4384 22.8142 42.8374 28.7866 46.1446 33.9267C53.12 44.7713 66.5576 48.6025 76.099 42.4673ZM41.124 35.1975C52.0819 44.0286 54.6904 59.0382 46.9392 68.656C39.1887 78.273 23.9684 78.9124 13.0106 70.0813C2.05006 61.248 -0.561052 46.2379 7.18943 36.621C14.9406 27.0031 30.1635 26.3642 41.124 35.1975ZM89.3883 48.2471C76.746 46.8725 64.4342 51.9617 56.4552 61.8622C48.4762 71.7627 46.1193 84.8747 50.1496 96.9353L59.8592 125.999C61.4697 130.821 64.5257 134.91 68.6932 137.821C72.8616 140.734 77.7512 142.195 82.8355 142.05C87.9186 141.901 92.7161 140.158 96.7097 137.008C100.703 133.859 103.516 129.598 104.844 124.688L104.932 124.358C108.354 112.068 116.792 101.672 128.128 95.7974C131.051 94.2816 133.577 92.2152 135.6 89.7057C136.7 88.3413 137.651 86.8439 138.437 85.2343C140.667 80.6635 141.351 75.605 140.416 70.6047C139.481 65.6069 137.014 61.1379 133.282 57.6819C129.55 54.226 124.906 52.1093 119.851 51.5586L89.3883 48.2471ZM42.5403 106.323C44.156 101.307 43.4146 95.9093 40.4517 91.1244C37.6329 86.5707 33.1005 83.1048 27.6879 81.3653C22.2772 79.629 16.5749 79.8065 11.6299 81.8647C6.43636 84.0274 2.68813 87.9811 1.08022 92.9931C-2.16215 103.071 4.49981 114.263 15.9363 117.946C25.0467 120.868 34.4716 118.154 39.5644 111.835C40.8648 110.221 41.8825 108.372 42.5403 106.323ZM103.378 3.86597L103.383 3.86544C113.626 1.19484 124.43 8.47022 127.469 20.0829C129.394 27.4743 127.724 34.8647 123.621 39.9554C121.267 42.8762 118.112 45.0408 114.376 46.0141C104.135 48.6853 93.3308 41.4108 90.2928 29.7972C87.2628 18.181 93.1335 6.55001 103.378 3.86597Z" fill="#EBF5FD"/>
</svg>
